<mxfile host="app.diagrams.net" modified="2021-10-04T13:25:42.333Z" agent="5.0 (Macintosh; Intel Mac OS X 10_15_7) AppleWebKit/605.1.15 (KHTML, like Gecko) Version/14.1 Safari/605.1.15" etag="MqxVbmC0g-54nBudU17V" version="15.4.1" type="github">
  <diagram id="WvdQioOhXTn4ABsslMwv" name="Page-1">
    <mxGraphModel dx="2893" dy="2327" grid="1" gridSize="10" guides="1" tooltips="1" connect="1" arrows="1" fold="1" page="1" pageScale="1" pageWidth="827" pageHeight="1169" math="0" shadow="0">
      <root>
        <mxCell id="0" />
        <mxCell id="1" parent="0" />
        <mxCell id="kJgMdSx_fgfLo8wjJh-V-1" value="Account" style="whiteSpace=wrap;html=1;align=center;fillColor=#d5e8d4;strokeColor=#82b366;" parent="1" vertex="1">
          <mxGeometry x="190" y="160" width="100" height="40" as="geometry" />
        </mxCell>
        <mxCell id="kJgMdSx_fgfLo8wjJh-V-2" value="Account Login" style="ellipse;whiteSpace=wrap;html=1;fillColor=#f8cecc;strokeColor=#b85450;strokeWidth=1;verticalAlign=middle;" parent="1" vertex="1">
          <mxGeometry x="-50" y="30" width="120" height="60" as="geometry" />
        </mxCell>
        <mxCell id="kJgMdSx_fgfLo8wjJh-V-6" value="Account Password" style="ellipse;whiteSpace=wrap;html=1;fillColor=#f8cecc;strokeColor=#b85450;" parent="1" vertex="1">
          <mxGeometry x="-50" y="150" width="120" height="60" as="geometry" />
        </mxCell>
        <mxCell id="kJgMdSx_fgfLo8wjJh-V-9" value="" style="endArrow=none;html=1;entryX=0;entryY=0.5;entryDx=0;entryDy=0;" parent="1" target="kJgMdSx_fgfLo8wjJh-V-1" edge="1">
          <mxGeometry width="50" height="50" relative="1" as="geometry">
            <mxPoint x="120" y="180" as="sourcePoint" />
            <mxPoint x="440" y="200" as="targetPoint" />
          </mxGeometry>
        </mxCell>
        <mxCell id="kJgMdSx_fgfLo8wjJh-V-10" value="" style="endArrow=none;html=1;" parent="1" edge="1">
          <mxGeometry width="50" height="50" relative="1" as="geometry">
            <mxPoint x="120" y="400" as="sourcePoint" />
            <mxPoint x="120" y="59" as="targetPoint" />
            <Array as="points">
              <mxPoint x="120" y="160" />
            </Array>
          </mxGeometry>
        </mxCell>
        <mxCell id="kJgMdSx_fgfLo8wjJh-V-11" value="" style="endArrow=none;html=1;exitX=1;exitY=0.5;exitDx=0;exitDy=0;" parent="1" source="kJgMdSx_fgfLo8wjJh-V-2" edge="1">
          <mxGeometry width="50" height="50" relative="1" as="geometry">
            <mxPoint x="70" y="70" as="sourcePoint" />
            <mxPoint x="120" y="60" as="targetPoint" />
            <Array as="points">
              <mxPoint x="100" y="60" />
            </Array>
          </mxGeometry>
        </mxCell>
        <mxCell id="kJgMdSx_fgfLo8wjJh-V-12" value="" style="endArrow=none;html=1;exitX=1;exitY=0.5;exitDx=0;exitDy=0;" parent="1" source="kJgMdSx_fgfLo8wjJh-V-6" edge="1">
          <mxGeometry width="50" height="50" relative="1" as="geometry">
            <mxPoint x="70" y="230" as="sourcePoint" />
            <mxPoint x="120" y="180" as="targetPoint" />
            <Array as="points" />
          </mxGeometry>
        </mxCell>
        <mxCell id="kJgMdSx_fgfLo8wjJh-V-13" value="Email" style="ellipse;whiteSpace=wrap;html=1;align=center;fillColor=#f8cecc;strokeColor=#b85450;" parent="1" vertex="1">
          <mxGeometry x="-55" y="260" width="130" height="50" as="geometry" />
        </mxCell>
        <mxCell id="kJgMdSx_fgfLo8wjJh-V-15" value="" style="endArrow=none;html=1;" parent="1" edge="1">
          <mxGeometry width="50" height="50" relative="1" as="geometry">
            <mxPoint x="75" y="290" as="sourcePoint" />
            <mxPoint x="120" y="290" as="targetPoint" />
          </mxGeometry>
        </mxCell>
        <mxCell id="kJgMdSx_fgfLo8wjJh-V-17" value="&lt;span style=&quot;border-bottom: 1px dotted&quot;&gt;Favorite Threads&lt;/span&gt;" style="ellipse;whiteSpace=wrap;html=1;align=center;fillColor=#f8cecc;strokeColor=#b85450;" parent="1" vertex="1">
          <mxGeometry x="-50" y="370" width="120" height="60" as="geometry" />
        </mxCell>
        <mxCell id="kJgMdSx_fgfLo8wjJh-V-18" value="" style="endArrow=none;html=1;" parent="1" edge="1">
          <mxGeometry width="50" height="50" relative="1" as="geometry">
            <mxPoint x="70" y="400" as="sourcePoint" />
            <mxPoint x="120" y="400" as="targetPoint" />
            <Array as="points" />
          </mxGeometry>
        </mxCell>
        <mxCell id="kJgMdSx_fgfLo8wjJh-V-19" value="Thread" style="whiteSpace=wrap;html=1;align=center;fillColor=#d5e8d4;strokeColor=#82b366;" parent="1" vertex="1">
          <mxGeometry x="340" y="500" width="100" height="40" as="geometry" />
        </mxCell>
        <mxCell id="kJgMdSx_fgfLo8wjJh-V-20" value="" style="endArrow=none;html=1;entryX=0.5;entryY=0;entryDx=0;entryDy=0;" parent="1" target="kJgMdSx_fgfLo8wjJh-V-24" edge="1">
          <mxGeometry width="50" height="50" relative="1" as="geometry">
            <mxPoint x="240" y="640" as="sourcePoint" />
            <mxPoint x="640" y="640" as="targetPoint" />
            <Array as="points">
              <mxPoint x="465" y="640" />
              <mxPoint x="640" y="640" />
            </Array>
          </mxGeometry>
        </mxCell>
        <mxCell id="kJgMdSx_fgfLo8wjJh-V-22" value="Thread ID" style="ellipse;whiteSpace=wrap;html=1;align=center;fontStyle=4;fillColor=#f8cecc;strokeColor=#b85450;strokeWidth=3;" parent="1" vertex="1">
          <mxGeometry x="190" y="720" width="100" height="40" as="geometry" />
        </mxCell>
        <mxCell id="kJgMdSx_fgfLo8wjJh-V-23" value="Name" style="ellipse;whiteSpace=wrap;html=1;align=center;fillColor=#f8cecc;strokeColor=#b85450;" parent="1" vertex="1">
          <mxGeometry x="450" y="720" width="100" height="40" as="geometry" />
        </mxCell>
        <mxCell id="kJgMdSx_fgfLo8wjJh-V-24" value="Image" style="ellipse;whiteSpace=wrap;html=1;align=center;fillColor=#f8cecc;strokeColor=#b85450;" parent="1" vertex="1">
          <mxGeometry x="590" y="720" width="100" height="40" as="geometry" />
        </mxCell>
        <mxCell id="kJgMdSx_fgfLo8wjJh-V-25" value="" style="endArrow=none;html=1;exitX=0.5;exitY=0;exitDx=0;exitDy=0;" parent="1" source="kJgMdSx_fgfLo8wjJh-V-22" edge="1">
          <mxGeometry width="50" height="50" relative="1" as="geometry">
            <mxPoint x="240" y="710" as="sourcePoint" />
            <mxPoint x="240" y="640" as="targetPoint" />
          </mxGeometry>
        </mxCell>
        <mxCell id="kJgMdSx_fgfLo8wjJh-V-27" value="" style="endArrow=none;html=1;exitX=0.5;exitY=0;exitDx=0;exitDy=0;" parent="1" source="kJgMdSx_fgfLo8wjJh-V-23" edge="1">
          <mxGeometry width="50" height="50" relative="1" as="geometry">
            <mxPoint x="460" y="690" as="sourcePoint" />
            <mxPoint x="500" y="640" as="targetPoint" />
          </mxGeometry>
        </mxCell>
        <mxCell id="kJgMdSx_fgfLo8wjJh-V-29" value="" style="endArrow=none;html=1;entryX=0.5;entryY=1;entryDx=0;entryDy=0;" parent="1" target="kJgMdSx_fgfLo8wjJh-V-19" edge="1">
          <mxGeometry width="50" height="50" relative="1" as="geometry">
            <mxPoint x="390" y="640" as="sourcePoint" />
            <mxPoint x="460" y="565" as="targetPoint" />
            <Array as="points" />
          </mxGeometry>
        </mxCell>
        <mxCell id="kJgMdSx_fgfLo8wjJh-V-31" value="Reply" style="shape=ext;margin=3;double=1;whiteSpace=wrap;html=1;align=center;strokeWidth=3;fillColor=#60a917;strokeColor=#2D7600;fontColor=#ffffff;" parent="1" vertex="1">
          <mxGeometry x="630" y="300" width="100" height="40" as="geometry" />
        </mxCell>
        <mxCell id="kJgMdSx_fgfLo8wjJh-V-32" value="" style="endArrow=classic;html=1;rounded=0;entryX=0.5;entryY=1;entryDx=0;entryDy=0;exitX=1;exitY=0.5;exitDx=0;exitDy=0;endFill=1;" parent="1" source="kJgMdSx_fgfLo8wjJh-V-19" target="kJgMdSx_fgfLo8wjJh-V-31" edge="1">
          <mxGeometry relative="1" as="geometry">
            <mxPoint x="490" y="519.41" as="sourcePoint" />
            <mxPoint x="640" y="360" as="targetPoint" />
            <Array as="points">
              <mxPoint x="680" y="519" />
            </Array>
          </mxGeometry>
        </mxCell>
        <mxCell id="kJgMdSx_fgfLo8wjJh-V-33" value="(1, 1)" style="resizable=0;html=1;align=left;verticalAlign=bottom;" parent="kJgMdSx_fgfLo8wjJh-V-32" connectable="0" vertex="1">
          <mxGeometry x="-1" relative="1" as="geometry">
            <mxPoint x="10" as="offset" />
          </mxGeometry>
        </mxCell>
        <mxCell id="kJgMdSx_fgfLo8wjJh-V-50" value="(0, *)" style="edgeLabel;html=1;align=center;verticalAlign=middle;resizable=0;points=[];" parent="kJgMdSx_fgfLo8wjJh-V-32" vertex="1" connectable="0">
          <mxGeometry x="0.8436" y="5" relative="1" as="geometry">
            <mxPoint x="-15" as="offset" />
          </mxGeometry>
        </mxCell>
        <mxCell id="kJgMdSx_fgfLo8wjJh-V-35" value="has" style="shape=rhombus;perimeter=rhombusPerimeter;whiteSpace=wrap;html=1;align=center;strokeWidth=3;fillColor=#dae8fc;strokeColor=#6c8ebf;" parent="1" vertex="1">
          <mxGeometry x="520" y="490" width="120" height="60" as="geometry" />
        </mxCell>
        <mxCell id="kJgMdSx_fgfLo8wjJh-V-36" value="Reply ID" style="ellipse;whiteSpace=wrap;html=1;align=center;fontStyle=4;strokeWidth=3;fillColor=#f8cecc;strokeColor=#b85450;" parent="1" vertex="1">
          <mxGeometry x="800" y="300" width="100" height="40" as="geometry" />
        </mxCell>
        <mxCell id="kJgMdSx_fgfLo8wjJh-V-38" value="" style="endArrow=none;html=1;entryX=0;entryY=0.5;entryDx=0;entryDy=0;" parent="1" source="kJgMdSx_fgfLo8wjJh-V-31" target="kJgMdSx_fgfLo8wjJh-V-36" edge="1">
          <mxGeometry width="50" height="50" relative="1" as="geometry">
            <mxPoint x="730" y="320" as="sourcePoint" />
            <mxPoint x="780" y="270" as="targetPoint" />
          </mxGeometry>
        </mxCell>
        <mxCell id="kJgMdSx_fgfLo8wjJh-V-42" value="(0, *)" style="endArrow=none;html=1;exitX=0.5;exitY=0;exitDx=0;exitDy=0;entryX=1;entryY=0.5;entryDx=0;entryDy=0;verticalAlign=bottom;" parent="1" source="kJgMdSx_fgfLo8wjJh-V-31" target="kJgMdSx_fgfLo8wjJh-V-44" edge="1">
          <mxGeometry x="-0.8" y="-20" width="50" height="50" relative="1" as="geometry">
            <mxPoint x="630" y="270" as="sourcePoint" />
            <mxPoint x="680" y="240" as="targetPoint" />
            <Array as="points">
              <mxPoint x="680" y="240" />
            </Array>
            <mxPoint y="-1" as="offset" />
          </mxGeometry>
        </mxCell>
        <mxCell id="kJgMdSx_fgfLo8wjJh-V-43" value="(0, *)" style="endArrow=classic;html=1;entryX=0;entryY=0.5;entryDx=0;entryDy=0;exitX=0;exitY=0.5;exitDx=0;exitDy=0;verticalAlign=top;endFill=1;startArrow=none;startFill=0;" parent="1" source="kJgMdSx_fgfLo8wjJh-V-44" target="kJgMdSx_fgfLo8wjJh-V-31" edge="1">
          <mxGeometry x="0.7895" y="-20" width="50" height="50" relative="1" as="geometry">
            <mxPoint x="520" y="320" as="sourcePoint" />
            <mxPoint x="620" y="319.41" as="targetPoint" />
            <Array as="points">
              <mxPoint x="520" y="320" />
            </Array>
            <mxPoint x="-1" as="offset" />
          </mxGeometry>
        </mxCell>
        <mxCell id="kJgMdSx_fgfLo8wjJh-V-44" value="has" style="shape=rhombus;perimeter=rhombusPerimeter;whiteSpace=wrap;html=1;align=center;strokeWidth=3;fillColor=#dae8fc;strokeColor=#6c8ebf;" parent="1" vertex="1">
          <mxGeometry x="520" y="210" width="120" height="60" as="geometry" />
        </mxCell>
        <mxCell id="kJgMdSx_fgfLo8wjJh-V-45" value="Time of create" style="ellipse;whiteSpace=wrap;html=1;align=center;fillColor=#f8cecc;strokeColor=#b85450;" parent="1" vertex="1">
          <mxGeometry x="30" y="720" width="100" height="40" as="geometry" />
        </mxCell>
        <mxCell id="kJgMdSx_fgfLo8wjJh-V-46" value="" style="endArrow=none;html=1;verticalAlign=top;exitX=0.5;exitY=0;exitDx=0;exitDy=0;" parent="1" source="kJgMdSx_fgfLo8wjJh-V-45" edge="1">
          <mxGeometry width="50" height="50" relative="1" as="geometry">
            <mxPoint x="85" y="670" as="sourcePoint" />
            <mxPoint x="240" y="640" as="targetPoint" />
            <Array as="points">
              <mxPoint x="80" y="640" />
            </Array>
          </mxGeometry>
        </mxCell>
        <mxCell id="kJgMdSx_fgfLo8wjJh-V-47" value="creates" style="shape=rhombus;perimeter=rhombusPerimeter;whiteSpace=wrap;html=1;align=center;strokeWidth=1;fillColor=#dae8fc;strokeColor=#6c8ebf;" parent="1" vertex="1">
          <mxGeometry x="180" y="340" width="120" height="60" as="geometry" />
        </mxCell>
        <mxCell id="kJgMdSx_fgfLo8wjJh-V-48" value="(1, 1)" style="endArrow=none;html=1;verticalAlign=bottom;exitX=0.5;exitY=0;exitDx=0;exitDy=0;" parent="1" source="kJgMdSx_fgfLo8wjJh-V-47" edge="1">
          <mxGeometry x="0.7143" y="-20" width="50" height="50" relative="1" as="geometry">
            <mxPoint x="190" y="250" as="sourcePoint" />
            <mxPoint x="240" y="200" as="targetPoint" />
            <mxPoint as="offset" />
          </mxGeometry>
        </mxCell>
        <mxCell id="kJgMdSx_fgfLo8wjJh-V-49" value="(0, *)" style="endArrow=classic;html=1;verticalAlign=top;entryX=0;entryY=0.5;entryDx=0;entryDy=0;exitX=0.5;exitY=1;exitDx=0;exitDy=0;endFill=1;" parent="1" source="kJgMdSx_fgfLo8wjJh-V-47" target="kJgMdSx_fgfLo8wjJh-V-19" edge="1">
          <mxGeometry x="0.8182" y="20" width="50" height="50" relative="1" as="geometry">
            <mxPoint x="210" y="545" as="sourcePoint" />
            <mxPoint x="260" y="495" as="targetPoint" />
            <Array as="points">
              <mxPoint x="240" y="520" />
            </Array>
            <mxPoint as="offset" />
          </mxGeometry>
        </mxCell>
        <mxCell id="f3r7cRmI2_3JR3KgPuWu-4" style="edgeStyle=none;curved=1;rounded=0;orthogonalLoop=1;jettySize=auto;html=1;exitX=0.5;exitY=1;exitDx=0;exitDy=0;entryX=0.5;entryY=0;entryDx=0;entryDy=0;endArrow=none;sourcePerimeterSpacing=8;targetPerimeterSpacing=8;endFill=0;" parent="1" source="f3r7cRmI2_3JR3KgPuWu-2" target="f3r7cRmI2_3JR3KgPuWu-3" edge="1">
          <mxGeometry relative="1" as="geometry" />
        </mxCell>
        <mxCell id="f3r7cRmI2_3JR3KgPuWu-7" value="(1, 1)" style="edgeLabel;html=1;align=center;verticalAlign=middle;resizable=0;points=[];" parent="f3r7cRmI2_3JR3KgPuWu-4" vertex="1" connectable="0">
          <mxGeometry x="-0.6714" y="2" relative="1" as="geometry">
            <mxPoint x="22" y="-3" as="offset" />
          </mxGeometry>
        </mxCell>
        <mxCell id="f3r7cRmI2_3JR3KgPuWu-2" value="Board" style="whiteSpace=wrap;html=1;align=center;fillColor=#d5e8d4;strokeColor=#82b366;" parent="1" vertex="1">
          <mxGeometry x="340" y="80" width="100" height="40" as="geometry" />
        </mxCell>
        <mxCell id="f3r7cRmI2_3JR3KgPuWu-5" style="edgeStyle=none;curved=1;rounded=0;orthogonalLoop=1;jettySize=auto;html=1;exitX=0.5;exitY=1;exitDx=0;exitDy=0;entryX=0.5;entryY=0;entryDx=0;entryDy=0;endArrow=classic;endFill=1;sourcePerimeterSpacing=8;targetPerimeterSpacing=8;" parent="1" source="f3r7cRmI2_3JR3KgPuWu-3" target="kJgMdSx_fgfLo8wjJh-V-19" edge="1">
          <mxGeometry relative="1" as="geometry" />
        </mxCell>
        <mxCell id="f3r7cRmI2_3JR3KgPuWu-6" value="(0, *)" style="edgeLabel;html=1;align=center;verticalAlign=middle;resizable=0;points=[];" parent="f3r7cRmI2_3JR3KgPuWu-5" vertex="1" connectable="0">
          <mxGeometry x="0.46" y="3" relative="1" as="geometry">
            <mxPoint x="21" as="offset" />
          </mxGeometry>
        </mxCell>
        <mxCell id="f3r7cRmI2_3JR3KgPuWu-3" value="contains" style="shape=rhombus;perimeter=rhombusPerimeter;whiteSpace=wrap;html=1;align=center;strokeWidth=1;fillColor=#dae8fc;strokeColor=#6c8ebf;" parent="1" vertex="1">
          <mxGeometry x="330" y="340" width="120" height="60" as="geometry" />
        </mxCell>
        <mxCell id="f3r7cRmI2_3JR3KgPuWu-9" style="edgeStyle=none;curved=1;rounded=0;orthogonalLoop=1;jettySize=auto;html=1;entryX=1;entryY=0.5;entryDx=0;entryDy=0;endArrow=none;endFill=0;sourcePerimeterSpacing=8;targetPerimeterSpacing=8;" parent="1" target="f3r7cRmI2_3JR3KgPuWu-2" edge="1">
          <mxGeometry relative="1" as="geometry">
            <mxPoint x="480" y="100" as="sourcePoint" />
          </mxGeometry>
        </mxCell>
        <mxCell id="f3r7cRmI2_3JR3KgPuWu-11" style="edgeStyle=none;curved=1;rounded=0;orthogonalLoop=1;jettySize=auto;html=1;exitX=0;exitY=0.5;exitDx=0;exitDy=0;endArrow=none;endFill=0;sourcePerimeterSpacing=8;targetPerimeterSpacing=8;" parent="1" source="f3r7cRmI2_3JR3KgPuWu-8" edge="1">
          <mxGeometry relative="1" as="geometry">
            <mxPoint x="480" y="50" as="targetPoint" />
          </mxGeometry>
        </mxCell>
        <mxCell id="f3r7cRmI2_3JR3KgPuWu-8" value="Theme" style="ellipse;whiteSpace=wrap;html=1;align=center;fillColor=#f8cecc;strokeColor=#b85450;strokeWidth=1;" parent="1" vertex="1">
          <mxGeometry x="540" y="30" width="100" height="40" as="geometry" />
        </mxCell>
        <mxCell id="f3r7cRmI2_3JR3KgPuWu-10" value="Board ID" style="ellipse;whiteSpace=wrap;html=1;align=center;fillColor=#f8cecc;strokeColor=#b85450;strokeWidth=3;" parent="1" vertex="1">
          <mxGeometry x="540" y="120" width="100" height="40" as="geometry" />
        </mxCell>
        <mxCell id="f3r7cRmI2_3JR3KgPuWu-12" value="" style="endArrow=none;html=1;sourcePerimeterSpacing=8;targetPerimeterSpacing=8;" parent="1" edge="1">
          <mxGeometry width="50" height="50" relative="1" as="geometry">
            <mxPoint x="480" y="100" as="sourcePoint" />
            <mxPoint x="480" y="50" as="targetPoint" />
            <Array as="points" />
          </mxGeometry>
        </mxCell>
        <mxCell id="f3r7cRmI2_3JR3KgPuWu-13" value="" style="endArrow=none;html=1;sourcePerimeterSpacing=8;targetPerimeterSpacing=8;" parent="1" edge="1">
          <mxGeometry width="50" height="50" relative="1" as="geometry">
            <mxPoint x="480" y="140" as="sourcePoint" />
            <mxPoint x="480" y="95" as="targetPoint" />
            <Array as="points" />
          </mxGeometry>
        </mxCell>
        <mxCell id="f3r7cRmI2_3JR3KgPuWu-14" style="edgeStyle=none;curved=1;rounded=0;orthogonalLoop=1;jettySize=auto;html=1;exitX=0;exitY=0.5;exitDx=0;exitDy=0;endArrow=none;endFill=0;sourcePerimeterSpacing=8;targetPerimeterSpacing=8;" parent="1" source="f3r7cRmI2_3JR3KgPuWu-10" edge="1">
          <mxGeometry relative="1" as="geometry">
            <mxPoint x="480" y="139.5" as="targetPoint" />
            <mxPoint x="530" y="139.5" as="sourcePoint" />
          </mxGeometry>
        </mxCell>
        <mxCell id="f3r7cRmI2_3JR3KgPuWu-19" style="edgeStyle=none;curved=1;rounded=0;orthogonalLoop=1;jettySize=auto;html=1;exitX=0.5;exitY=1;exitDx=0;exitDy=0;entryX=0.5;entryY=0;entryDx=0;entryDy=0;endArrow=none;endFill=0;sourcePerimeterSpacing=8;targetPerimeterSpacing=8;" parent="1" source="f3r7cRmI2_3JR3KgPuWu-15" target="f3r7cRmI2_3JR3KgPuWu-18" edge="1">
          <mxGeometry relative="1" as="geometry" />
        </mxCell>
        <mxCell id="f3r7cRmI2_3JR3KgPuWu-15" value="Country" style="whiteSpace=wrap;html=1;align=center;fillColor=#d5e8d4;strokeColor=#82b366;" parent="1" vertex="1">
          <mxGeometry x="190" y="-170" width="100" height="40" as="geometry" />
        </mxCell>
        <mxCell id="f3r7cRmI2_3JR3KgPuWu-16" value="(1, 1)" style="edgeLabel;html=1;align=center;verticalAlign=middle;resizable=0;points=[];" parent="1" vertex="1" connectable="0">
          <mxGeometry x="264" y="-110" as="geometry" />
        </mxCell>
        <mxCell id="f3r7cRmI2_3JR3KgPuWu-17" value="(0, *)" style="edgeLabel;html=1;align=center;verticalAlign=middle;resizable=0;points=[];" parent="1" vertex="1" connectable="0">
          <mxGeometry x="264" y="130" as="geometry">
            <mxPoint x="1" y="8" as="offset" />
          </mxGeometry>
        </mxCell>
        <mxCell id="f3r7cRmI2_3JR3KgPuWu-20" style="edgeStyle=none;curved=1;rounded=0;orthogonalLoop=1;jettySize=auto;html=1;exitX=0.5;exitY=1;exitDx=0;exitDy=0;entryX=0.5;entryY=0;entryDx=0;entryDy=0;endArrow=classic;endFill=1;sourcePerimeterSpacing=8;targetPerimeterSpacing=8;" parent="1" source="f3r7cRmI2_3JR3KgPuWu-18" target="kJgMdSx_fgfLo8wjJh-V-1" edge="1">
          <mxGeometry relative="1" as="geometry" />
        </mxCell>
        <mxCell id="f3r7cRmI2_3JR3KgPuWu-18" value="contains" style="shape=rhombus;perimeter=rhombusPerimeter;whiteSpace=wrap;html=1;align=center;strokeWidth=1;fillColor=#dae8fc;strokeColor=#6c8ebf;" parent="1" vertex="1">
          <mxGeometry x="180" y="-33" width="120" height="60" as="geometry" />
        </mxCell>
        <mxCell id="UZnkKhkPGIkRnx1AJclT-1" value="&lt;u&gt;Account &amp;nbsp;ID&lt;/u&gt;" style="ellipse;whiteSpace=wrap;html=1;fillColor=#f8cecc;strokeColor=#b85450;strokeWidth=3;" vertex="1" parent="1">
          <mxGeometry x="-50" y="-60" width="120" height="60" as="geometry" />
        </mxCell>
        <mxCell id="UZnkKhkPGIkRnx1AJclT-2" value="" style="endArrow=none;html=1;exitX=1;exitY=0.5;exitDx=0;exitDy=0;" edge="1" parent="1" source="UZnkKhkPGIkRnx1AJclT-1">
          <mxGeometry width="50" height="50" relative="1" as="geometry">
            <mxPoint x="80" y="70" as="sourcePoint" />
            <mxPoint x="120" y="60" as="targetPoint" />
            <Array as="points">
              <mxPoint x="120" y="-30" />
            </Array>
          </mxGeometry>
        </mxCell>
      </root>
    </mxGraphModel>
  </diagram>
</mxfile>
